HIERARCHY
ROOT hip
{
	OFFSET 0.000000 0.000000 0.000000 
	CHANNELS 6 Xposition Yposition Zposition Xrotation Zrotation Yrotation
	JOINT abdomen
	{
		OFFSET 0.000000 3.402643 0.000000 
		CHANNELS 3 Xrotation Zrotation Yrotation
		JOINT chest
		{
			OFFSET 0.000000 8.438565 -0.680529 
			CHANNELS 3 Xrotation Zrotation Yrotation
			JOINT neck
			{
				OFFSET 0.000000 10.207942 -0.272212 
				CHANNELS 3 Xrotation Zrotation Yrotation
				JOINT head
				{
					OFFSET 0.000000 3.130431 0.000000 
					CHANNELS 3 Xrotation Zrotation Yrotation
					End Site
					{
						OFFSET 0.000000 3.130435 0.000000 
					}
				}
			}
			JOINT lCollar
			{
				OFFSET 3.470700 6.669187 -0.816635 
				CHANNELS 3 Yrotation Zrotation Xrotation
				JOINT lShldr
				{
					OFFSET 3.198488 0.000000 0.000000 
					CHANNELS 3 Zrotation Yrotation Xrotation
					JOINT lForeArm
					{
						OFFSET 10.139888 0.000000 0.000000 
						CHANNELS 3 Yrotation Zrotation Xrotation
						JOINT lHand
						{
							OFFSET 8.370511 0.000000 0.000000 
							CHANNELS 3 Zrotation Yrotation Xrotation
							End Site
							{
								OFFSET 4.083176 0.000000 0.000000 
							}
						}
					}
				}
			}
			JOINT rCollar
			{
				OFFSET -3.470700 6.669187 -0.816635 
				CHANNELS 3 Yrotation Zrotation Xrotation
				JOINT rShldr
				{
					OFFSET -3.198488 0.000000 0.000000 
					CHANNELS 3 Zrotation Yrotation Xrotation
					JOINT rForeArm
					{
						OFFSET -10.139888 0.000000 0.000000 
						CHANNELS 3 Yrotation Zrotation Xrotation
						JOINT rHand
						{
							OFFSET -8.370511 0.000000 0.000000 
							CHANNELS 3 Zrotation Yrotation Xrotation
							End Site
							{
								OFFSET -4.083176 0.000000 0.000000 
							}
						}
					}
				}
			}
		}
	}
	JOINT lThigh
	{
		OFFSET 5.308129 -1.633274 1.361059 
		CHANNELS 3 Xrotation Zrotation Yrotation
		JOINT lShin
		{
			OFFSET -2.041588 -20.007561 0.000000 
			CHANNELS 3 Xrotation Zrotation Yrotation
			JOINT lFoot
			{
				OFFSET 0.000000 -19.190928 -1.224953 
				CHANNELS 3 Xrotation Yrotation Zrotation
				End Site
				{
					OFFSET 0.000000 -2.449906 4.627600 
				}
			}
		}
	}
	JOINT rThigh
	{
		OFFSET -5.308129 -1.633274 1.361059 
		CHANNELS 3 Xrotation Zrotation Yrotation
		JOINT rShin
		{
			OFFSET 2.041588 -20.007561 0.000000 
			CHANNELS 3 Xrotation Zrotation Yrotation
			JOINT rFoot
			{
				OFFSET 0.000000 -19.190928 -1.224953 
				CHANNELS 3 Xrotation Yrotation Zrotation
				End Site
				{
					OFFSET 0.000000 -2.449906 4.627600 
				}
			}
		}
	}
}
MOTION
Frames: 12
Frame Time: 0.033333
-37.454121 14.614789 22.433348 95.004929 33.985806 107.126694 0.000000 0.000000 0.000000 2.963044 -0.864087 6.182260 37.460918 19.506966 1.315777 -19.392365 -40.116783 -0.311375 44.996254 29.990746 -25.000000 -165.352768 -65.825630 34.145004 -60.118343 -5.001802 53.371754 -9.103646 -15.358940 -56.398502 -45.000000 -29.996695 -24.996220 150.813980 10.391899 96.512810 -40.936562 -50.831841 -43.365452 -11.125203 13.520455 -81.640259 -65.221581 6.747303 8.633936 104.185493 -1.467325 -3.552062 16.427328 -22.290480 -15.718806 -79.077095 -12.470345 1.390519 103.025787 25.976377 14.360600 14.464507 -24.156729 7.664098 
-37.777397 15.013829 22.644115 100.876564 34.925865 113.293137 0.000000 0.000000 0.000000 4.785736 -4.229225 5.404710 42.981842 15.398448 0.933603 -18.486273 -37.189850 2.948924 44.996254 29.990746 -25.000000 -145.736694 -67.180176 24.417866 -58.371014 12.363289 45.315025 -9.876944 -20.593845 -54.080788 -45.000000 -29.996695 -24.996220 151.796906 8.575582 96.829140 -42.188026 -47.348850 -46.039063 -9.100533 10.039807 -80.776344 -67.519318 2.969107 6.927852 108.287224 -0.946919 -3.400614 16.413025 -22.876122 -13.477488 -78.863403 -16.044390 0.286488 106.337090 19.921978 12.790767 12.292987 -20.903412 7.548269 
-37.989319 15.348340 22.763010 105.899689 34.670616 118.323082 0.000000 0.000000 0.000000 5.974438 -7.446094 4.677934 47.826565 16.033131 0.936312 -14.535294 -35.644928 2.148877 44.996254 29.990746 -25.000000 -133.540344 -67.201996 17.625349 -54.886120 22.278997 36.717907 -10.006774 -22.104017 -53.143711 -45.000000 -29.996695 -24.996220 152.543335 7.721010 96.980774 -42.261650 -43.928249 -47.717339 -7.455235 11.629237 -80.306747 -68.992073 0.312537 5.788425 109.511871 -2.050256 -3.640140 16.362812 -22.182068 -18.947489 -79.506577 -17.557802 -0.167982 106.969696 13.759608 11.225266 12.820971 -20.238447 7.511586 
-38.160988 15.509479 22.897293 109.137802 35.017456 120.501022 0.000000 0.000000 0.000000 7.024121 -8.861539 4.347786 52.144558 17.136307 0.982199 -11.386711 -34.351921 0.928974 44.996254 29.990746 -25.000000 -120.634758 -63.567360 9.421546 -48.618565 30.034231 19.139069 -8.065760 -21.710054 -53.723469 -45.000000 -29.996695 -24.996220 153.016815 7.555902 96.991768 -40.290546 -42.202610 -45.835434 -3.187682 17.259886 -79.007507 -70.821121 1.142038 5.467230 109.893631 -1.662834 -3.525329 17.512932 -23.088585 -20.966274 -78.864143 -16.425632 0.155397 105.734848 10.722377 10.415269 14.323540 -20.727827 7.222120 
-38.209869 15.512215 22.888334 109.317558 35.364273 120.355812 0.000000 0.000000 0.000000 6.807366 -8.461308 4.431783 54.790657 18.863932 1.105616 -8.665560 -34.295876 -0.498420 44.996254 29.990746 -25.000000 -113.166252 -59.318302 4.752886 -44.546387 33.963684 1.841848 -7.187323 -20.983761 -53.804596 -45.000000 -29.996695 -24.996220 152.938049 7.911808 96.937996 -38.475815 -41.700668 -41.772598 0.244681 20.902981 -77.775162 -73.076675 3.826996 5.528476 108.379730 -0.208300 -3.249969 18.898130 -24.480150 -19.594978 -78.960289 -14.716127 0.684716 104.097557 11.552464 10.546722 15.271268 -21.243078 7.838525 
-38.205887 15.422402 22.823952 108.022865 35.842777 119.013985 0.000000 0.000000 0.000000 6.368436 -7.241396 4.704511 55.820938 20.474188 1.233254 -6.916261 -34.464268 -2.619192 44.996254 29.990746 -25.000000 -108.615379 -56.223042 2.110193 -44.061535 37.657368 -6.552356 -7.781337 -21.075903 -53.024349 -45.000000 -29.996695 -24.996220 153.099579 8.324097 96.857368 -36.199596 -41.439865 -37.117229 -2.061698 20.046688 -78.606789 -74.569489 6.494407 5.824066 106.097809 1.347762 -2.909638 18.461813 -23.584021 -24.229128 -78.882759 -13.310579 1.133674 101.760880 14.908995 11.245689 15.566906 -23.582624 7.370508 
-38.152588 15.249660 22.717878 105.473923 36.384224 116.540077 0.000000 0.000000 0.000000 5.574977 -5.213295 5.158005 56.185417 20.971891 1.267628 -6.805920 -34.145149 -3.309563 44.996254 29.990746 -25.000000 -104.667557 -52.518391 -0.106489 -46.814610 44.121502 -8.691276 -7.268960 -22.464399 -52.322666 -45.000000 -29.996695 -24.996220 153.431015 8.787198 96.752327 -35.202477 -41.352840 -31.883457 -2.388398 18.831858 -78.907364 -76.278549 9.697244 6.278147 102.190903 3.572144 -2.408634 18.597202 -23.051239 -23.513460 -79.077667 -12.099528 1.510987 99.062614 19.334339 12.244166 15.914993 -25.313854 8.893409 
-38.088264 15.037781 22.622517 102.847153 36.866745 113.540794 0.000000 0.000000 0.000000 5.014049 -3.236386 5.614143 55.897362 20.288832 1.208129 -7.008902 -34.220009 -4.067677 44.996254 29.990746 -25.000000 -101.164124 -49.632633 -1.894959 -53.023922 51.785450 -2.816094 -4.861816 -24.426058 -52.510532 -45.000000 -29.996695 -24.996220 153.826477 9.093976 96.700218 -34.539864 -40.485214 -29.600958 -0.302869 18.751293 -78.305244 -77.116760 12.187155 6.733857 97.687286 5.808611 -1.935207 18.277168 -21.606493 -23.064537 -79.148674 -10.693210 1.912447 95.751526 23.250080 13.063014 16.985964 -27.721924 10.928656 
-38.018211 14.778463 22.543018 100.078674 37.375942 109.978424 0.000000 0.000000 0.000000 4.684802 -1.126452 6.075345 55.484573 18.737122 1.083972 -8.035326 -34.042469 -3.493613 44.996254 29.990746 -25.000000 -99.532219 -47.612419 -2.728802 -63.896221 58.056129 8.907424 -3.674989 -25.133186 -52.408794 -45.000000 -29.996695 -24.996220 154.327927 9.306369 96.645393 -33.333370 -39.752502 -28.361197 2.068226 17.397282 -77.653893 -77.167343 13.867223 7.214326 93.070290 8.593085 -1.331948 18.007793 -21.322412 -20.912605 -78.948311 -8.593304 2.525407 91.605644 26.492813 13.709845 17.993212 -31.355377 13.654978 
-37.988403 14.504756 22.508039 97.712761 38.020977 106.336922 0.000000 0.000000 0.000000 4.928674 0.747142 6.484968 55.066715 16.599554 0.917600 -9.485857 -32.810341 -2.337523 44.996254 29.990746 -25.000000 -99.476936 -46.095085 -2.837917 -74.743370 60.395443 18.163313 -4.831924 -24.395901 -51.638390 -45.000000 -29.996695 -24.996220 154.957153 9.729670 96.553398 -31.896721 -40.438507 -25.799536 3.007221 15.653733 -77.487976 -76.494797 15.299474 7.833537 89.715462 11.376662 -0.703529 17.798780 -21.807270 -19.982510 -78.351189 -6.552656 3.122642 86.806992 29.001263 14.108533 20.646837 -35.388542 14.077584 
-37.950523 14.309058 22.468121 96.333649 38.251663 103.424973 0.000000 0.000000 0.000000 5.271610 1.493814 6.642940 54.548824 14.930290 0.788839 -10.296727 -31.184742 -1.314711 44.996254 29.990746 -25.000000 -100.668175 -46.085846 -2.310053 -90.593262 59.571484 28.755724 -6.984711 -21.626545 -51.073448 -45.000000 -29.996695 -24.996220 155.595123 10.373374 96.427780 -30.821659 -41.469158 -23.012913 3.624600 13.709456 -77.387665 -74.749535 14.978362 8.278826 85.457596 13.701535 -0.167055 17.767330 -21.885214 -18.925133 -78.227325 -5.468774 3.415401 82.300018 30.440777 14.149670 22.873495 -38.835945 17.637255 
-37.915310 14.181213 22.452803 96.046501 38.482830 101.280647 0.000000 0.000000 0.000000 6.123910 1.280615 6.564346 53.958065 13.885711 0.705800 -10.406671 -30.573765 -0.797177 44.957962 30.000000 -24.986509 -101.400780 -47.548832 -1.907483 -104.337303 54.543945 38.514076 -7.993609 -19.449848 -51.352371 -45.000000 -29.996695 -24.996220 155.908783 10.819179 96.345482 -29.299507 -42.870907 -20.421993 4.860390 14.234363 -77.111855 -71.967262 13.445531 8.621345 81.530251 15.156801 0.209851 17.460768 -21.113998 -19.264984 -78.045258 -4.950883 3.577381 78.272972 30.964058 13.962765 24.614010 -41.738407 21.186571 
